<svg width="101" height="101" viewBox="0 0 101 101" fill="none" xmlns="http://www.w3.org/2000/svg">
<path d="M50.5 0C22.5987 0 0 22.5987 0 50.5C0 72.8462 14.4556 91.7206 34.5294 98.4119C37.0544 98.8537 38.0012 97.3387 38.0012 96.0131C38.0012 94.8137 37.9381 90.8369 37.9381 86.6075C25.25 88.9431 21.9675 83.5144 20.9575 80.6737C20.3894 79.2219 17.9275 74.74 15.7812 73.5406C14.0137 72.5937 11.4887 70.2581 15.7181 70.195C19.695 70.1319 22.5356 73.8562 23.4825 75.3712C28.0275 83.0094 35.2869 80.8631 38.1906 79.5375C38.6325 76.255 39.9581 74.0456 41.41 72.7831C30.1737 71.5206 18.4325 67.165 18.4325 47.8487C18.4325 42.3569 20.3894 37.8119 23.6088 34.2769C23.1038 33.0144 21.3362 27.8381 24.1137 20.8944C24.1137 20.8944 28.3431 19.5687 38.0012 26.0706C42.0412 24.9344 46.3338 24.3662 50.6263 24.3662C54.9188 24.3662 59.2113 24.9344 63.2513 26.0706C72.9094 19.5056 77.1388 20.8944 77.1388 20.8944C79.9163 27.8381 78.1488 33.0144 77.6438 34.2769C80.8631 37.8119 82.82 42.2937 82.82 47.8487C82.82 67.2281 71.0156 71.5206 59.7794 72.7831C61.61 74.3612 63.1881 77.3912 63.1881 82.1256C63.1881 88.88 63.125 94.3087 63.125 96.0131C63.125 97.3387 64.0719 98.9169 66.5969 98.4119C76.6226 95.0283 85.3345 88.5855 91.5062 79.9905C97.6778 71.3955 100.998 61.0813 101 50.5C101 22.5987 78.4013 0 50.5 0Z" fill="white"/>
</svg>
