<svg width="114" height="173" viewBox="0 0 114 173" fill="none" xmlns="http://www.w3.org/2000/svg">
<path d="M64.4368 96.0671C64.4368 96.0671 113.287 85.3017 113.287 18.2089C113.287 11.0044 107.61 7.26347 96.6698 7.26347H16.4182C10.9455 7.26347 0.223877 5.98894 0.223877 17.6008C0.223877 84.285 49.843 96.0671 49.843 96.0671V145.312C49.843 145.312 27.5436 156.695 23.0973 159.336C18.3105 162.07 21.492 166.448 23.4038 167.202C26.595 168.457 34.3638 172.563 56.3859 172.563C78.9626 172.563 86.5562 168.117 89.295 167.202C90.3506 166.852 95.8477 162.669 89.3485 158.821C77.7805 151.971 64.4368 145.312 64.4368 145.312V96.0671Z" fill="#8899A6"/>
<path d="M113.083 14.2777C113.083 22.1632 95.8281 28.5553 56.5415 28.5553C17.2548 28.5553 0 22.1632 0 14.2777C0 6.38724 17.2548 0 56.5415 0C95.8281 0 113.083 6.39211 113.083 14.2777Z" fill="#CCD6DD"/>
<path d="M8.28918 14.9632C18.2227 61.1771 34.8403 77.1914 50.6065 82.2652C56.0062 84.0067 60.4622 84.3472 64.2323 82.8635C81.2585 76.1747 100.921 55.2957 103.962 16.7874C104.745 6.8782 8.28918 14.9632 8.28918 14.9632V14.9632Z" fill="#CCD6DD"/>
<path d="M15.7904 43.7471C15.7904 60.7732 32.0042 85.0963 56.3273 85.0963C80.6503 85.0963 98.4889 58.5452 98.4889 43.9514C69.3012 43.9514 15.7904 43.7471 15.7904 43.7471Z" fill="#A0041E"/>
<path d="M57.1397 51.044C79.9762 51.044 98.4889 47.7771 98.4889 43.7471C98.4889 39.7171 79.9762 36.4502 57.1397 36.4502C34.3031 36.4502 15.7904 39.7171 15.7904 43.7471C15.7904 47.7771 34.3031 51.044 57.1397 51.044Z" fill="#DD2E44"/>
<path d="M55.5248 29.9268C31.0558 29.9268 12.7989 24.527 7.84668 22.2066C5.41437 21.0683 4.36848 18.169 5.5068 15.7367C6.64512 13.2995 9.54929 12.2536 11.9767 13.3968C18.004 16.228 57.9717 27.475 102.439 12.779C104.983 11.9326 107.732 13.3238 108.578 15.8729C109.425 18.422 108.038 21.1753 105.484 22.0218C87.6021 27.9274 70.4154 29.9268 55.5248 29.9268V29.9268Z" fill="white"/>
</svg>
