<svg width="110" height="110" viewBox="0 0 110 110" fill="none" xmlns="http://www.w3.org/2000/svg">
<path d="M54.9999 2.19995C25.839 2.19995 2.19995 25.839 2.19995 54.9999C2.19995 84.1609 25.839 107.8 54.9999 107.8C84.1609 107.8 107.8 84.1609 107.8 54.9999C107.8 25.839 84.1609 2.19995 54.9999 2.19995ZM42.0749 76.8844H31.3829V42.4764H42.0749V76.8844ZM36.6629 38.2524C33.2859 38.2524 31.1024 35.8599 31.1024 32.9009C31.1024 29.8814 33.3519 27.5604 36.8004 27.5604C40.2489 27.5604 42.3609 29.8814 42.4269 32.9009C42.4269 35.8599 40.2489 38.2524 36.6629 38.2524ZM81.1249 76.8844H70.4329V57.8159C70.4329 53.3774 68.8819 50.3634 65.0154 50.3634C62.0619 50.3634 60.3075 52.404 59.532 54.3675C59.246 55.0659 59.1744 56.056 59.1744 57.0405V76.8789H48.4769V53.449C48.4769 49.1535 48.3394 45.5619 48.1964 42.4709H57.4859L57.9755 47.2504H58.1899C59.5979 45.0064 63.0464 41.6954 68.8159 41.6954C75.8504 41.6954 81.1249 46.4089 81.1249 56.5399V76.8844V76.8844Z" fill="white"/>
</svg>
